<svg id="Слой_1" data-name="Слой 1" xmlns="http://www.w3.org/2000/svg" viewBox="0 0 25.5 22.67"><defs><style>.cls-1{fill:#333131;}.cls-2{fill:none;stroke:#333131;stroke-miterlimit:10;}</style></defs><title>bars_menu</title><path class="cls-1" d="M27.25,22.82v2.27a.7.7,0,0,1-.7.7H3.45a.7.7,0,0,1-.7-.7V22.82a.7.7,0,0,1,.7-.7h23.1A.7.7,0,0,1,27.25,22.82Z" transform="translate(-2.25 -3.62)"/><path class="cls-1" d="M27.25,13.82v2.27a.7.7,0,0,1-.7.7H3.45a.7.7,0,0,1-.7-.7V13.82a.7.7,0,0,1,.7-.7h23.1A.7.7,0,0,1,27.25,13.82Z" transform="translate(-2.25 -3.62)"/><path class="cls-1" d="M27.25,4.82V7.09a.7.7,0,0,1-.7.7H3.45a.7.7,0,0,1-.7-.7V4.82a.7.7,0,0,1,.7-.7h23.1A.7.7,0,0,1,27.25,4.82Z" transform="translate(-2.25 -3.62)"/><path class="cls-2" d="M26.55,7.79H3.45a.7.7,0,0,1-.7-.7V4.82a.7.7,0,0,1,.7-.7h23.1a.7.7,0,0,1,.7.7V7.09A.7.7,0,0,1,26.55,7.79Z" transform="translate(-2.25 -3.62)"/><path class="cls-2" d="M26.55,25.79H3.45a.7.7,0,0,1-.7-.7V22.82a.7.7,0,0,1,.7-.7h23.1a.7.7,0,0,1,.7.7v2.27A.7.7,0,0,1,26.55,25.79Z" transform="translate(-2.25 -3.62)"/><path class="cls-2" d="M26.55,16.79H3.45a.7.7,0,0,1-.7-.7V13.82a.7.7,0,0,1,.7-.7h23.1a.7.7,0,0,1,.7.7v2.27A.7.7,0,0,1,26.55,16.79Z" transform="translate(-2.25 -3.62)"/></svg>